<svg width="203" height="64" viewBox="0 0 203 64" fill="none" xmlns="http://www.w3.org/2000/svg">
<path d="M58.7404 12.1467H55.32L42.3383 49.4218H45.7588L58.7404 12.1467Z" fill="#FEFFFF"/>
<path d="M61.8379 44.089C64.0464 45.4626 67.1976 46.5399 70.5911 46.5399C75.6276 46.5399 78.5632 43.9274 78.5632 40.1568C78.5632 36.7094 76.5433 34.6625 71.3991 32.7772C65.1776 30.5687 61.3531 27.3368 61.3531 22.1387C61.3531 16.3212 66.2549 11.985 73.6615 11.985C77.5129 11.985 80.3677 12.8738 82.0106 13.8165L80.664 17.7487C79.479 17.0215 76.9473 15.9711 73.4999 15.9711C68.3018 15.9711 66.3357 19.0145 66.3357 21.5731C66.3357 25.0744 68.6519 26.7981 73.9038 28.7911C80.3408 31.242 83.5458 34.2855 83.5458 39.7798C83.5458 45.5434 79.2635 50.6068 70.2679 50.6068C66.605 50.6068 62.592 49.5025 60.5451 48.1559L61.8379 44.089Z" fill="#FEFFFF"/>
<path d="M116.835 48.8022C115.084 49.691 111.422 50.5798 106.789 50.5798C96.0699 50.5798 88.0439 43.9274 88.0439 31.619C88.0439 19.8494 96.1237 11.985 107.92 11.985C112.607 11.985 115.65 12.9815 116.943 13.6548L115.704 17.587C113.899 16.6982 111.233 16.0249 108.082 16.0249C99.1671 16.0249 93.2419 21.6269 93.2419 31.4305C93.2419 40.6415 98.6015 46.459 107.813 46.459C110.856 46.459 113.899 45.8396 115.892 44.8969L116.835 48.8022Z" fill="#FEFFFF"/>
<path d="M131.837 16.6981H120.255V12.6043H148.427V16.6981H136.819V49.9871H131.863V16.6981H131.837Z" fill="#FEFFFF"/>
<path d="M157.584 12.6043V49.9871H152.629V12.6043H157.584Z" fill="#FEFFFF"/>
<path d="M202.778 31.727L169.704 63.3731C169.704 63.3731 165.099 59.2793 166.472 53.5965C166.876 51.8997 167.792 50.3645 169.031 49.1525L186.564 31.6192L169.812 15.5942C168.277 14.1398 167.146 12.2814 166.661 10.2345C166.014 7.54123 166.203 3.87836 169.65 0.0538864L202.778 31.727Z" fill="#FEFFFF"/>
<path d="M188.611 45.3011C188.611 45.3011 192.813 36.5479 186.591 31.6192L169.327 48.7215C167.765 50.2567 166.715 52.2228 166.365 54.3775C166.042 56.3974 166.284 58.8752 168.061 61.4339L169.731 63.4L188.611 45.3011Z" fill="url(#paint0_linear)"/>
<path d="M0 31.673L33.0736 0.0268402C33.0736 0.0268402 37.6791 4.12063 36.3055 9.80347C35.9015 11.5002 34.9858 13.0354 33.7469 14.2474L16.2136 31.7807L32.9658 47.8058C34.501 49.2601 35.6322 51.1185 36.117 53.1654C36.7634 55.8587 36.5749 59.5216 33.1274 63.346L0 31.673Z" fill="#FEFFFF"/>
<path d="M14.1665 18.0989C14.1665 18.0989 9.96495 26.8521 16.1864 31.7808L33.4504 14.6784C35.0125 13.1432 36.0629 11.1771 36.413 9.02252C36.7362 7.00255 36.4938 4.52472 34.7163 1.9661L33.0464 0L14.1665 18.0989Z" fill="url(#paint1_linear)"/>
<defs>
<linearGradient id="paint0_linear" x1="178.11" y1="63.366" x2="178.11" y2="31.6051" gradientUnits="userSpaceOnUse">
<stop stop-color="white"/>
<stop offset="1" stop-color="#CFCFCF"/>
</linearGradient>
<linearGradient id="paint1_linear" x1="24.6756" y1="0.0223543" x2="24.6756" y2="31.7833" gradientUnits="userSpaceOnUse">
<stop stop-color="white"/>
<stop offset="1" stop-color="#CFCFCF"/>
</linearGradient>
</defs>
</svg>
